<svg width="46" height="43" viewBox="0 0 46 43" fill="none" xmlns="http://www.w3.org/2000/svg">
<path d="M34.1941 42.2612H12.1233C5.7915 42.2612 0.545166 37.4551 0.545166 31.6546V11.4357C0.545166 5.63523 5.7915 0.829102 12.1233 0.829102H34.1036C40.5259 0.829102 45.7722 5.63523 45.7722 11.4357V31.5717C45.7722 37.4551 40.5259 42.2612 34.1941 42.2612Z" fill="url(#paint0_linear_449_47)"/>
<path d="M37.3599 4.06104H8.95728C6.24365 4.06104 4.07275 6.04975 4.07275 8.53565V19.7222H42.3348V8.53565C42.2444 6.04975 40.0735 4.06104 37.3599 4.06104Z" fill="url(#paint1_linear_449_47)"/>
<path d="M28.7666 14.2528H26.7766C26.053 14.2528 25.5103 14.4185 25.2389 14.7499C25.058 14.9985 24.8771 15.4129 24.8771 15.9929V18.2303H28.7666L28.2239 21.7107H24.8771V32.0688H20.8972V21.7107H17.46V18.2303H20.8972V15.6615C20.8972 14.2528 21.3494 13.0926 22.254 12.264C23.1585 11.4353 24.3344 11.021 25.8721 11.021C27.048 11.021 28.043 11.1039 28.7666 11.1867V14.2528Z" fill="white"/>
<defs>
<linearGradient id="paint0_linear_449_47" x1="23.1587" y1="0.953812" x2="23.1587" y2="54.483" gradientUnits="userSpaceOnUse">
<stop stop-color="#03AEA1"/>
<stop offset="1" stop-color="#563181"/>
</linearGradient>
<linearGradient id="paint1_linear_449_47" x1="23.1585" y1="2.90096" x2="23.1585" y2="22.7881" gradientUnits="userSpaceOnUse">
<stop stop-color="#FF4BCB" stop-opacity="0.57"/>
<stop offset="0.729167" stop-color="#406BA4" stop-opacity="0"/>
</linearGradient>
</defs>
</svg>
