<svg width="46" height="45" viewBox="0 0 46 45" fill="none" xmlns="http://www.w3.org/2000/svg">
<path d="M33.6489 45H11.5781C5.24634 45 0 39.78 0 33.48V11.52C0 5.22 5.24634 0 11.5781 0H33.5585C39.9807 0 45.2271 5.22 45.2271 11.52V33.39C45.2271 39.78 39.9807 45 33.6489 45Z" fill="url(#paint0_linear_1435_22)"/>
<path d="M36.9053 3.51074H8.50269C5.78906 3.51074 3.61816 5.67069 3.61816 8.37062V20.5203H41.8802V8.37062C41.7898 5.67069 39.6189 3.51074 36.9053 3.51074Z" fill="url(#paint1_linear_1435_22)"/>
<path d="M34.0769 17.3393C32.608 17.3393 31.1993 16.7669 30.1606 15.7478C29.122 14.7288 28.5385 13.3467 28.5385 11.9056C28.5385 11.6654 28.4412 11.4351 28.2681 11.2652C28.095 11.0954 27.8602 11 27.6154 11H23C22.7552 11 22.5204 11.0954 22.3473 11.2652C22.1742 11.4351 22.0769 11.6654 22.0769 11.9056V26.3955C22.076 26.8004 21.9645 27.1975 21.754 27.5457C21.5435 27.8938 21.2417 28.1803 20.88 28.3751C20.5184 28.57 20.1101 28.6661 19.6977 28.6536C19.2852 28.641 18.8838 28.5202 18.5351 28.3037C18.1865 28.0873 17.9034 27.783 17.7153 27.4227C17.5272 27.0624 17.441 26.6592 17.4657 26.2552C17.4904 25.8511 17.625 25.4609 17.8557 25.1252C18.0863 24.7895 18.4044 24.5206 18.7769 24.3466C18.9357 24.2749 19.0702 24.16 19.1643 24.0155C19.2584 23.871 19.3082 23.703 19.3077 23.5315V18.8223C19.31 18.688 19.281 18.5551 19.223 18.4334C19.1651 18.3118 19.0796 18.2048 18.9731 18.1204C18.8698 18.0369 18.7492 17.9765 18.6197 17.9432C18.4902 17.91 18.3548 17.9048 18.2231 17.928C16.5809 18.2166 15.0567 18.9588 13.8294 20.0674C12.6021 21.1761 11.7226 22.6052 11.2941 24.187C10.8657 25.7689 10.906 27.4378 11.4105 28.998C11.9149 30.5581 12.8625 31.9447 14.142 32.995C15.4215 34.0453 16.9799 34.7157 18.6341 34.9276C20.2884 35.1395 21.9699 34.884 23.4814 34.1911C24.9928 33.4983 26.2715 32.3968 27.1672 31.016C28.063 29.6351 28.5387 28.0323 28.5385 26.3955V22.3542C30.2481 23.2291 32.1487 23.6837 34.0769 23.6787C34.3217 23.6787 34.5565 23.5833 34.7296 23.4134C34.9027 23.2436 35 23.0132 35 22.7731V18.245C35 18.0048 34.9027 17.7744 34.7296 17.6046C34.5565 17.4348 34.3217 17.3393 34.0769 17.3393ZM33.1538 21.8222C31.352 21.6653 29.6263 21.0357 28.1577 19.9996C28.0188 19.9055 27.8564 19.8501 27.688 19.8392C27.5195 19.8284 27.3512 19.8625 27.2009 19.938C27.0506 20.0134 26.924 20.1274 26.8344 20.2678C26.7449 20.4082 26.6958 20.5698 26.6923 20.7354V26.3955C26.6916 27.6406 26.3422 28.8615 25.6821 29.9249C25.0219 30.9883 24.0766 31.8532 22.9494 32.4251C21.8221 32.9971 20.5563 33.254 19.2903 33.1679C18.0242 33.0817 16.8067 32.6558 15.7707 31.9367C14.7347 31.2176 13.9201 30.233 13.4159 29.0904C12.9118 27.9478 12.7374 26.6912 12.9119 25.458C13.0864 24.2247 13.6031 23.0623 14.4055 22.0976C15.2079 21.133 16.265 20.4033 17.4615 19.9883V23.0108C16.8647 23.402 16.3814 23.9383 16.0587 24.5674C15.7361 25.1964 15.5851 25.8968 15.6204 26.6002C15.6558 27.3035 15.8764 27.9859 16.2606 28.5807C16.6448 29.1756 17.1796 29.6626 17.8128 29.9943C18.446 30.3259 19.156 30.491 19.8735 30.4733C20.5911 30.4556 21.2918 30.2558 21.9072 29.8934C22.5226 29.5309 23.0318 29.0182 23.3851 28.4052C23.7384 27.7921 23.9237 27.0998 23.9231 26.3955V12.8112H26.75C26.9568 14.4067 27.698 15.8894 28.8572 17.0267C30.0163 18.1639 31.5277 18.8911 33.1538 19.094V21.8222Z" fill="#F8F8F8"/>
<defs>
<linearGradient id="paint0_linear_1435_22" x1="22.6135" y1="0.13545" x2="22.6135" y2="58.2742" gradientUnits="userSpaceOnUse">
<stop stop-color="#03AEA1"/>
<stop offset="1" stop-color="#563181"/>
</linearGradient>
<linearGradient id="paint1_linear_1435_22" x1="22.7039" y1="2.25078" x2="22.704" y2="23.8502" gradientUnits="userSpaceOnUse">
<stop stop-color="#FF4BCB" stop-opacity="0.57"/>
<stop offset="0.729167" stop-color="#406BA4" stop-opacity="0"/>
</linearGradient>
</defs>
</svg>
