<svg width="47" height="42" viewBox="0 0 47 42" fill="none" xmlns="http://www.w3.org/2000/svg">
<path d="M34.5613 41.9189H12.4905C6.15869 41.9189 0.912354 37.1128 0.912354 31.3122V11.0931C0.912354 5.29251 6.15869 0.486328 12.4905 0.486328H34.4708C40.8931 0.486328 46.1394 5.29251 46.1394 11.0931V31.2293C46.1394 37.1128 40.8931 41.9189 34.5613 41.9189Z" fill="url(#paint0_linear_449_31)"/>
<path d="M37.8176 3.71875H9.41504C6.70142 3.71875 4.53052 5.70747 4.53052 8.19336V19.3799H42.7926V8.19336C42.7021 5.70747 40.5312 3.71875 37.8176 3.71875Z" fill="url(#paint1_linear_449_31)"/>
<path d="M14.2091 15.4022C13.395 15.4022 12.6714 15.1536 12.1287 14.5735C11.5859 14.0763 11.2241 13.4134 11.2241 12.6676C11.2241 11.9219 11.4955 11.2589 12.1287 10.7618C12.6714 10.2646 13.395 9.93311 14.2091 9.93311C15.0232 9.93311 15.7468 10.1817 16.2896 10.7618C16.8323 11.2589 17.1941 11.9219 17.1941 12.6676C17.1941 13.4134 16.9227 14.0763 16.2896 14.5735C15.7468 15.1536 15.0232 15.4022 14.2091 15.4022ZM16.7418 32.3894H11.6764V17.4738H16.7418V32.3894ZM35.7372 32.3894H30.6718V25.0974C30.6718 23.8544 30.5813 23.0257 30.3099 22.5285C29.9481 21.617 29.134 21.2027 27.9581 21.2027C26.7822 21.2027 25.9681 21.617 25.5159 22.4457C25.1541 23.0257 24.9731 23.9372 24.9731 25.0974V32.5552H19.9077V17.4738H24.7922V19.5454H24.8827C25.2445 18.8825 25.7872 18.3024 26.6013 17.8881C27.5059 17.3909 28.5009 17.0595 29.6768 17.0595C32.0286 17.0595 33.7472 17.7224 34.6517 19.1311C35.3754 20.2083 35.7372 21.9485 35.7372 24.2687V32.3894Z" fill="white"/>
<defs>
<linearGradient id="paint0_linear_449_31" x1="23.5259" y1="0.61104" x2="23.5259" y2="54.1408" gradientUnits="userSpaceOnUse">
<stop stop-color="#03AEA1"/>
<stop offset="1" stop-color="#563181"/>
</linearGradient>
<linearGradient id="paint1_linear_449_31" x1="23.6162" y1="2.55867" x2="23.6163" y2="22.4458" gradientUnits="userSpaceOnUse">
<stop stop-color="#FF4BCB" stop-opacity="0.57"/>
<stop offset="0.729167" stop-color="#406BA4" stop-opacity="0"/>
</linearGradient>
</defs>
</svg>
