<svg width="46" height="42" viewBox="0 0 46 42" fill="none" xmlns="http://www.w3.org/2000/svg">
<path d="M34.1064 41.9189H12.0356C5.70386 41.9189 0.45752 37.1128 0.45752 31.3122V11.0931C0.45752 5.29251 5.70386 0.486328 12.0356 0.486328H34.016C40.4382 0.486328 45.6846 5.29251 45.6846 11.0931V31.2293C45.6846 37.1128 40.4382 41.9189 34.1064 41.9189Z" fill="url(#paint0_linear_449_35)"/>
<path d="M37.3628 3.71875H8.96021C6.24658 3.71875 4.07568 5.70747 4.07568 8.19336V19.3799H42.3378V8.19336C42.2473 5.70747 40.0764 3.71875 37.3628 3.71875Z" fill="url(#paint1_linear_449_35)"/>
<path d="M35.011 21.7C35.011 23.8545 35.011 25.4289 34.9205 26.4233C34.8301 27.3348 34.7396 28.1635 34.4683 28.9093C34.1064 29.738 33.6542 30.4837 32.9305 31.0638C32.2974 31.6439 31.4833 32.1411 30.5787 32.4725C29.8551 32.7211 28.9506 32.8869 27.8651 32.8869C26.8701 32.9697 25.1515 32.9697 22.7092 32.9697C20.267 32.9697 18.6388 32.9697 17.5533 32.8869C16.5584 32.804 15.6538 32.6383 14.8397 32.3897C13.9352 32.1411 13.1211 31.6439 12.4879 31.0638C11.8547 30.4837 11.312 29.738 10.9502 28.9093C10.6788 28.2464 10.4979 27.4177 10.4979 26.4233C10.4075 25.5118 10.4075 23.9373 10.4075 21.7C10.4075 19.5454 10.4075 17.971 10.4979 16.9766C10.5884 16.0651 10.6788 15.2364 10.9502 14.4906C11.312 13.6619 11.7643 12.9162 12.4879 12.3361C13.1211 11.756 13.9352 11.2588 14.8397 10.9274C15.5634 10.6788 16.4679 10.513 17.5533 10.513C18.5483 10.4302 20.267 10.4302 22.7092 10.4302C25.1515 10.4302 26.7797 10.4302 27.8651 10.513C28.8601 10.5959 29.7646 10.6788 30.5787 10.9274C31.4833 11.2588 32.2974 11.6732 32.9305 12.3361C33.5637 12.9162 34.1064 13.6619 34.4683 14.4906C34.7396 15.1535 34.9205 16.0651 34.9205 16.9766C35.011 17.971 35.011 19.5454 35.011 21.7ZM32.8401 25.5947C32.8401 24.8489 32.9305 23.8545 32.9305 22.4457V20.8713C32.9305 19.4626 32.9305 18.4682 32.8401 17.8052C32.7496 16.5623 32.6592 15.6507 32.3878 15.0707C31.9355 13.9934 31.1215 13.3305 30.036 12.9162C29.4933 12.7504 28.4983 12.5847 27.051 12.5018C26.2369 12.5018 25.1515 12.419 23.6138 12.419H21.8951C20.4479 12.419 19.272 12.419 18.4579 12.5018C17.1011 12.5847 16.1061 12.6676 15.4729 12.9162C14.3875 13.3305 13.5734 14.0763 13.1211 15.0707C12.9402 15.5679 12.7593 16.4794 12.6688 17.8052C12.6688 18.551 12.5784 19.5454 12.5784 20.8713V22.5286C12.5784 23.8545 12.5784 24.9317 12.6688 25.6775C12.7593 26.9205 12.8497 27.832 13.1211 28.4121C13.5734 29.4894 14.3875 30.1523 15.4729 30.5666C16.1061 30.7323 17.1011 30.8981 18.4579 30.9809C19.272 30.9809 20.3574 31.0638 21.8951 31.0638H23.7042C25.2419 31.0638 26.3274 31.0638 27.1415 30.9809C28.4983 30.8981 29.4933 30.8152 30.1265 30.5666C31.2119 30.1523 32.026 29.4065 32.4783 28.4121C32.5687 27.7492 32.7496 26.8376 32.8401 25.5947ZM25.9656 16.728C26.9606 17.2252 27.6842 17.971 28.2269 18.7996C28.7697 19.7112 29.041 20.6227 29.041 21.7C29.041 22.7772 28.7697 23.6887 28.2269 24.6003C27.6842 25.5118 26.8701 26.1747 25.9656 26.6719C24.9706 27.1691 23.9756 27.5006 22.7997 27.5006C21.7142 27.5006 20.6288 27.252 19.6338 26.7548C18.6388 26.2576 17.9152 25.5118 17.3724 24.6831C16.8297 23.6887 16.4679 22.6943 16.4679 21.7C16.4679 20.7056 16.7393 19.7112 17.282 18.7996C17.8247 17.8881 18.6388 17.2252 19.5433 16.728C20.5383 16.2308 21.5333 15.9822 22.7092 15.9822C23.9756 15.8993 24.9706 16.2308 25.9656 16.728ZM25.6942 24.3517C26.5083 23.6059 26.8701 22.6943 26.8701 21.7C26.8701 20.7056 26.5083 19.794 25.6942 19.0482C24.8801 18.3024 23.8851 17.971 22.7997 17.971C21.7142 17.971 20.7192 18.3024 19.9052 19.0482C19.0911 19.794 18.7292 20.7056 18.7292 21.7C18.7292 22.7772 19.0911 23.6059 19.9052 24.3517C20.7192 25.0975 21.7142 25.4289 22.7997 25.4289C23.9756 25.4289 24.8801 25.0975 25.6942 24.3517ZM30.3978 14.7392C30.1265 14.4906 29.7646 14.3249 29.4028 14.3249C29.041 14.3249 28.6792 14.4906 28.4078 14.7392C28.1365 14.9878 27.9556 15.3193 27.9556 15.6507C27.9556 15.9822 28.1365 16.3137 28.4078 16.5623C28.6792 16.8109 29.041 16.9766 29.4028 16.9766C29.7646 16.9766 30.1265 16.8109 30.3978 16.5623C30.6692 16.3137 30.8501 15.9822 30.8501 15.6507C30.8501 15.3193 30.6692 14.9878 30.3978 14.7392Z" fill="white"/>
<defs>
<linearGradient id="paint0_linear_449_35" x1="23.071" y1="0.611123" x2="23.071" y2="54.1407" gradientUnits="userSpaceOnUse">
<stop stop-color="#03AEA1"/>
<stop offset="1" stop-color="#563181"/>
</linearGradient>
<linearGradient id="paint1_linear_449_35" x1="23.1614" y1="2.55867" x2="23.1615" y2="22.4458" gradientUnits="userSpaceOnUse">
<stop stop-color="#FF4BCB" stop-opacity="0.57"/>
<stop offset="0.729167" stop-color="#406BA4" stop-opacity="0"/>
</linearGradient>
</defs>
</svg>
