<svg width="1920" height="1079" viewBox="0 0 1920 1079" fill="none" xmlns="http://www.w3.org/2000/svg">
<path d="M1962.33 0.337326L1946.45 0.696376L1946.6 7.58064L1962.49 7.22159L1962.33 0.337326ZM1953.08 3.39388L-86.9213 942.576L-84.1423 943.706L1955.86 4.52408L1953.08 3.39388Z" fill="#10323E"/>
<path d="M1962.33 33.4911L1946.45 33.8507L1946.61 40.7512L1962.49 40.3916L1962.33 33.4911ZM1953.08 36.5547L-85.9209 977.906L-83.143 979.039L1955.86 37.6876L1953.08 36.5547Z" fill="#10323E"/>
<path d="M1962.33 66.6534L1946.45 67.013L1946.61 73.9135L1962.49 73.5539L1962.33 66.6534ZM1953.08 69.717L-85.9209 1011.07L-83.143 1012.2L1955.86 70.8499L1953.08 69.717Z" fill="#10323E"/>
<path d="M1962.33 99.8156L1946.45 100.175L1946.61 107.076L1962.49 106.716L1962.33 99.8156ZM1953.08 102.879L-85.9209 1044.23L-83.143 1045.36L1955.86 104.012L1953.08 102.879Z" fill="#10323E"/>
<path d="M1962.33 132.978L1946.45 133.337L1946.61 140.238L1962.49 139.878L1962.33 132.978ZM1953.08 136.041L-85.9209 1077.39L-83.143 1078.53L1955.86 137.174L1953.08 136.041Z" fill="#10323E"/>
</svg>
