<svg width="668" height="362" viewBox="0 0 668 362" fill="none" xmlns="http://www.w3.org/2000/svg">
<path d="M445.807 155.022C445.119 155.022 444.431 154.792 443.513 154.333L325.35 85.8934C322.597 84.2858 320.532 80.3815 320.532 76.9366V4.82289C320.532 1.60763 322.367 0 324.203 0C324.891 0 325.579 0.229651 326.497 0.688974L444.66 69.1281C447.414 70.7357 449.478 74.64 449.478 78.0849V150.428C449.478 153.644 447.643 155.022 445.807 155.022ZM324.203 2.29662C323.285 2.29662 322.826 3.67458 322.826 4.82289V77.1663C322.826 79.9222 324.432 83.1375 326.497 84.0561L444.66 152.495C445.119 152.725 445.349 152.955 445.807 152.955C446.725 152.955 447.184 151.577 447.184 150.428V78.0849C447.184 75.329 445.578 72.1137 443.513 71.1951L325.12 2.52627C324.891 2.29661 324.432 2.29662 324.203 2.29662Z" fill="#2AF6FF"/>
<path d="M445.807 152.496C445.578 152.496 445.119 152.496 444.89 152.266L326.727 83.827C324.891 82.6787 323.285 79.6931 323.285 77.1668V4.82347C323.285 3.67516 323.514 2.52686 324.432 2.52686C324.662 2.52686 325.12 2.52685 325.35 2.75651L443.513 71.1956C445.349 72.3439 446.955 75.3295 446.955 77.8558V150.199C446.725 151.347 446.496 152.496 445.807 152.496Z" fill="url(#paint0_linear_449_79)"/>
<path d="M416.209 123.099C402.672 115.291 391.659 96.4585 391.659 80.8415C391.659 65.4542 402.672 59.0237 416.209 66.8322C429.746 74.6406 440.76 93.4729 440.76 109.09C440.76 124.477 429.746 130.908 416.209 123.099ZM416.209 68.8991C403.819 61.7796 393.494 67.5211 393.494 81.7601C393.494 95.9991 403.59 113.683 416.209 120.803C428.599 127.922 438.924 122.181 438.924 107.942C438.924 93.7025 428.829 76.2483 416.209 68.8991Z" fill="url(#paint1_linear_449_79)"/>
<path opacity="0.7" d="M416.209 110.468C408.638 106.104 402.672 95.5395 402.672 87.042C402.672 86.1234 402.672 85.4344 402.902 84.7454L397.395 80.3818C396.707 84.0564 397.166 87.731 398.313 92.3243C401.984 105.874 412.997 118.046 422.863 119.654L420.798 112.305C419.421 112.075 417.815 111.386 416.209 110.468Z" fill="url(#paint2_linear_449_79)"/>
<path d="M428.599 85.4346L425.157 88.1905C428.14 92.7837 429.976 98.0659 429.976 102.889C429.976 105.874 429.287 108.171 428.14 109.779L432.959 115.75C437.547 109.09 435.712 96.4583 428.599 85.4346Z" fill="url(#paint3_linear_449_79)"/>
<path d="M416.209 79.4631C419.651 81.3004 422.634 84.5156 424.928 88.1902L428.37 85.4343C424.699 79.9224 420.798 75.7885 415.98 73.2622L416.209 79.4631C416.209 79.2334 416.209 79.2334 416.209 79.4631Z" fill="url(#paint4_linear_449_79)"/>
<path d="M416.209 79.2332V73.0324C406.802 67.5205 399.001 70.7358 397.395 80.3815L402.902 84.7451C403.819 77.8553 409.555 75.5586 416.209 79.2332Z" fill="url(#paint5_linear_449_79)"/>
<path d="M407.949 81.9891L412.768 89.3382C413.685 88.6492 414.833 88.6492 416.209 89.5679C417.127 90.0272 418.045 90.9458 418.733 91.8645L421.945 87.5009C420.339 85.434 418.274 83.5967 416.209 82.4484C412.997 80.6111 410.014 80.6111 407.949 81.9891Z" fill="url(#paint6_linear_449_79)"/>
<path opacity="0.7" d="M420.798 97.6063C420.798 100.592 418.733 101.74 416.209 100.133C415.98 100.133 415.751 99.9029 415.521 99.6733L414.374 106.104C414.833 106.563 415.521 106.793 415.98 107.252C421.946 110.697 426.764 107.941 426.764 101.051C426.764 99.6733 426.534 98.0656 426.075 96.6877L420.11 95.769C420.798 96.458 420.798 97.147 420.798 97.6063Z" fill="url(#paint7_linear_449_79)"/>
<path d="M411.62 92.5535L405.425 88.8789C405.425 95.0798 409.555 102.429 414.603 106.333L415.75 99.9026C413.456 98.295 411.85 95.0798 411.62 92.5535Z" fill="url(#paint8_linear_449_79)"/>
<path d="M411.62 92.3244C411.62 90.9464 412.079 90.0277 412.768 89.5684L407.949 82.2192C406.343 83.3675 405.425 85.6642 405.425 88.8794C405.425 88.8794 405.425 88.8794 405.425 89.1091L411.62 92.3244Z" fill="url(#paint9_linear_449_79)"/>
<path d="M330.627 27.56V30.5456L388.676 64.0761V61.0905L330.627 27.56ZM368.256 56.2676L330.857 34.6795V37.6651L368.256 59.2532V56.2676ZM368.256 41.3397L330.857 19.7515V22.7371L368.256 44.3252V41.3397ZM330.627 44.5549L379.269 72.8033V69.8177L330.627 41.5693V44.5549ZM330.627 73.0329L379.269 101.281V98.2957L330.627 70.0473V73.0329ZM330.627 51.6744L364.126 70.966V67.9804L330.627 48.6888V51.6744ZM351.736 67.9804L330.627 55.8083V58.7939L351.736 70.966V67.9804ZM330.627 65.9134L357.931 81.7601V78.7745L330.627 62.9278V65.9134Z" fill="url(#paint10_linear_449_79)"/>
<path d="M191.585 155.481C189.749 155.481 187.914 154.103 187.914 150.658V78.3149C187.914 74.87 189.979 70.9657 192.732 69.3581L310.895 0.918972C311.584 0.459649 312.501 0.22998 313.19 0.22998C315.025 0.22998 316.861 1.60795 316.861 5.05287V77.3963C316.861 80.8412 314.796 84.7454 312.042 86.3531L193.879 154.792C192.962 155.252 192.273 155.481 191.585 155.481ZM313.19 2.75625C312.96 2.75625 312.501 2.98593 312.042 3.21559L193.879 71.4251C191.814 72.5734 190.208 75.7886 190.208 78.3149V150.658C190.208 151.807 190.667 153.185 191.585 153.185C191.814 153.185 192.273 152.955 192.732 152.725L310.895 84.2861C312.96 83.1378 314.566 79.9225 314.566 77.3963V5.05287C314.566 3.90456 314.107 2.75625 313.19 2.75625Z" fill="#2AF6FF"/>
<path d="M191.585 152.955C191.814 152.955 192.273 152.955 192.503 152.725L310.666 84.286C312.501 83.1377 314.107 80.1521 314.107 77.6258V5.28245C314.107 4.13415 313.878 2.98584 312.96 2.98584C312.731 2.98584 312.272 2.98585 312.042 3.21552L193.879 71.6546C192.044 72.803 190.438 75.7885 190.438 78.3148V150.658C190.438 151.806 190.897 152.955 191.585 152.955Z" fill="url(#paint11_linear_449_79)"/>
<path d="M308.601 58.7936V74.8699L197.78 138.945V115.52L209.711 90.7165L223.707 89.3385L245.045 56.4969L261.106 71.4249L270.743 49.3774L292.54 58.7936H308.601Z" fill="url(#paint12_linear_449_79)"/>
<path d="M308.601 66.3729V74.8704L197.78 138.946V121.032L216.824 98.5255L226.69 103.578L244.586 68.8991L257.894 80.8416L267.53 65.9136L285.656 71.6551L308.601 66.3729Z" fill="url(#paint13_linear_449_79)"/>
<path d="M308.601 72.1143V74.8702L197.78 138.946V129.989L205.81 116.439L219.806 119.654L239.538 94.1617L259.5 91.1762L266.383 81.071L287.263 81.3007L308.601 72.1143Z" fill="url(#paint14_linear_449_79)"/>
<path d="M665.03 338.672C664.571 338.672 663.883 338.442 663.424 338.213L588.167 294.577C586.331 293.429 584.954 290.903 584.954 288.606V242.444C584.954 240.147 586.331 238.999 587.708 238.999C588.167 238.999 588.855 239.229 589.314 239.458L664.571 283.094C666.407 284.242 667.783 286.769 667.783 289.065V335.227C667.783 337.524 666.177 338.672 665.03 338.672ZM587.478 241.296C587.249 241.296 587.019 241.755 587.019 242.444V288.606C587.019 290.214 587.937 292.051 589.084 292.74L664.342 336.376C664.571 336.605 664.801 336.605 664.801 336.605C665.03 336.605 665.26 336.146 665.26 335.457V289.065C665.26 287.458 664.342 285.62 663.195 284.931L587.937 241.296C587.708 241.296 587.478 241.296 587.478 241.296Z" fill="#2AF6FF"/>
<path d="M665.03 336.605C664.801 336.605 664.571 336.605 664.342 336.376L589.085 292.74C587.937 292.051 586.79 289.984 586.79 288.376V242.214C586.79 241.525 587.02 240.836 587.479 240.836C587.708 240.836 587.937 240.836 588.167 241.066L663.424 284.702C664.571 285.391 665.719 287.458 665.719 289.065V335.227C665.489 335.916 665.489 336.605 665.03 336.605Z" fill="url(#paint15_linear_449_79)"/>
<path d="M625.336 278.73L632.449 282.863V280.796L625.336 276.663V278.73Z" fill="white"/>
<path d="M628.319 296.184L620.977 292.05V294.117L628.319 298.251V296.184Z" fill="white"/>
<path d="M627.86 284.931V282.634L619.83 278.271V280.337L627.86 284.931Z" fill="white"/>
<path d="M619.371 286.538V288.835L623.501 291.131V288.835L619.371 286.538Z" fill="white"/>
<path d="M613.405 289.753V287.686L606.751 284.012V286.079L613.405 289.753Z" fill="white"/>
<path d="M631.302 293.428L625.566 290.212V292.279L631.302 295.495V293.428Z" fill="white"/>
<path d="M623.271 284.471V286.538L626.484 288.375V286.308L623.271 284.471Z" fill="white"/>
<path d="M634.514 281.945V284.012L636.35 285.161V283.094L634.514 281.945Z" fill="white"/>
<path d="M620.977 285.389V283.322L614.094 279.418V281.485L620.977 285.389Z" fill="white"/>
<path d="M629.925 284.012V286.079L640.021 291.82V289.753L629.925 284.012Z" fill="white"/>
<path d="M617.306 287.457V285.39L608.817 280.567V282.634L617.306 287.457Z" fill="white"/>
<path d="M610.882 268.395V270.461L617.535 274.366V272.299L610.882 268.395Z" fill="white"/>
<path d="M623.042 275.514L619.6 273.447V275.514L623.042 277.581V275.514Z" fill="white"/>
<path d="M618.912 290.902L615.471 288.835V290.902L618.912 292.969V290.902Z" fill="white"/>
<path d="M638.185 299.629L647.363 304.911V302.844L638.185 297.333V299.629Z" fill="white"/>
<path d="M604.687 282.634L601.245 280.797V282.864L604.687 284.931V282.634Z" fill="white"/>
<path d="M594.591 259.438V261.505L609.046 269.773V267.706L594.591 259.438Z" fill="white"/>
<path d="M640.25 296.414L643.692 298.251V296.184L640.25 294.117V296.414Z" fill="white"/>
<path d="M642.086 292.968L657.918 302.155V300.088L642.086 290.901V292.968Z" fill="white"/>
<path d="M628.549 289.753L638.185 295.035V292.968L628.549 287.457V289.753Z" fill="white"/>
<path d="M638.415 284.242V286.309L646.216 290.673V288.606L638.415 284.242Z" fill="white"/>
<path d="M606.751 279.419L601.245 276.433V278.5L606.751 281.486V279.419Z" fill="white"/>
<path d="M636.12 296.184L633.367 294.577V296.873L636.12 298.251V296.184Z" fill="white"/>
<path d="M612.029 278.041L601.245 272.069V274.136L612.029 280.337V278.041Z" fill="white"/>
<path d="M618.224 294.806V296.873L621.665 298.71V296.643L618.224 294.806Z" fill="white"/>
<path d="M616.159 295.725V293.429L609.275 289.524V291.821L616.159 295.725Z" fill="white"/>
<path d="M635.432 306.749L638.874 308.586V306.519L635.432 304.452V306.749Z" fill="white"/>
<path d="M623.73 300.088L633.367 305.37V303.303L623.73 297.792V300.088Z" fill="white"/>
<path d="M607.21 288.375L596.427 282.404V284.471L607.21 290.442V288.375Z" fill="white"/>
<path d="M617.765 276.893L601.245 267.477V269.773L617.765 279.189V276.893Z" fill="white"/>
<path d="M3.44164 361.028C1.83554 361.028 0 359.65 0 356.665V293.048C0 289.833 1.83555 286.388 4.35942 285.01L108.297 224.839C108.985 224.38 109.674 224.15 110.362 224.15C111.968 224.15 113.804 225.528 113.804 228.513V292.13C113.804 295.345 111.968 298.79 109.444 300.168L5.50663 360.339C4.8183 360.798 4.12997 361.028 3.44164 361.028ZM110.362 226.676C110.133 226.676 109.903 226.676 109.444 226.906L5.50663 287.077C3.90053 287.996 2.29443 290.752 2.29443 293.048V356.665C2.29443 357.583 2.52387 358.732 3.44164 358.732C3.67109 358.732 3.90053 358.732 4.35942 358.502L108.297 298.331C109.903 297.412 111.509 294.656 111.509 292.359V228.743C111.509 227.824 111.05 226.676 110.362 226.676Z" fill="#2AF6FF"/>
<path d="M3.44158 358.731C3.67102 358.731 3.90047 358.731 4.35935 358.501L108.297 298.33C109.903 297.411 111.28 294.655 111.28 292.359V228.743C111.28 227.824 111.05 226.905 110.362 226.905C110.133 226.905 109.903 226.905 109.444 227.135L5.50657 287.306C3.90047 288.225 2.5238 290.981 2.5238 293.277V356.894C2.5238 357.583 2.75325 358.731 3.44158 358.731Z" fill="url(#paint16_linear_449_79)"/>
<path d="M99.3488 275.594L91.0889 280.417V299.708L99.3488 294.885V275.594ZM11.7017 334.387V345.641L19.9616 340.818V329.564L11.7017 334.387ZM86.2706 267.326L78.0107 272.149V307.287L86.2706 302.464V267.326ZM72.9629 259.058L64.703 263.881V314.866L72.9629 310.043V259.058ZM59.6552 293.737L51.3953 298.56V322.445L59.6552 317.622V293.737ZM46.577 283.632L38.317 288.455V330.253L46.577 325.43V283.632ZM33.2693 301.546L25.0094 306.368V337.832L33.2693 333.009V301.546Z" fill="url(#paint17_linear_449_79)"/>
<defs>
<linearGradient id="paint0_linear_449_79" x1="323.594" y1="3.4021" x2="441.407" y2="145.479" gradientUnits="userSpaceOnUse">
<stop stop-color="#43E8E1"/>
<stop offset="0.0497177" stop-color="#3EC2C8"/>
<stop offset="0.1226" stop-color="#3790A8"/>
<stop offset="0.1973" stop-color="#32658C"/>
<stop offset="0.2726" stop-color="#2D4375"/>
<stop offset="0.3485" stop-color="#2A2864"/>
<stop offset="0.4253" stop-color="#271457"/>
<stop offset="0.5036" stop-color="#25094F"/>
<stop offset="0.5859" stop-color="#25054D"/>
<stop offset="1" stop-color="#7C1DC9"/>
</linearGradient>
<linearGradient id="paint1_linear_449_79" x1="391.833" y1="80.8234" x2="440.745" y2="80.8234" gradientUnits="userSpaceOnUse">
<stop offset="0.010101" stop-color="#2AF6FF"/>
<stop offset="1" stop-color="#4E00D4"/>
</linearGradient>
<linearGradient id="paint2_linear_449_79" x1="396.958" y1="93.1227" x2="422.724" y2="93.1227" gradientUnits="userSpaceOnUse">
<stop offset="0.010101" stop-color="#2AF6FF"/>
<stop offset="1" stop-color="#4E00D4"/>
</linearGradient>
<linearGradient id="paint3_linear_449_79" x1="427.967" y1="89.0428" x2="436.669" y2="130.093" gradientUnits="userSpaceOnUse">
<stop offset="0.010101" stop-color="#2AF6FF"/>
<stop offset="1" stop-color="#4E00D4"/>
</linearGradient>
<linearGradient id="paint4_linear_449_79" x1="435.035" y1="103.07" x2="412.808" y2="66.8651" gradientUnits="userSpaceOnUse">
<stop offset="0.010101" stop-color="#2AF6FF"/>
<stop offset="1" stop-color="#4E00D4"/>
</linearGradient>
<linearGradient id="paint5_linear_449_79" x1="403.617" y1="73.9039" x2="422.452" y2="91.0321" gradientUnits="userSpaceOnUse">
<stop offset="0.010101" stop-color="#2AF6FF"/>
<stop offset="1" stop-color="#4E00D4"/>
</linearGradient>
<linearGradient id="paint6_linear_449_79" x1="426.477" y1="99.4856" x2="407.396" y2="76.5617" gradientUnits="userSpaceOnUse">
<stop offset="0.010101" stop-color="#2AF6FF"/>
<stop offset="1" stop-color="#4E00D4"/>
</linearGradient>
<linearGradient id="paint7_linear_449_79" x1="420.896" y1="110.121" x2="428.077" y2="97.6957" gradientUnits="userSpaceOnUse">
<stop offset="0.010101" stop-color="#2AF6FF"/>
<stop offset="1" stop-color="#4E00D4"/>
</linearGradient>
<linearGradient id="paint8_linear_449_79" x1="410.559" y1="104" x2="415.849" y2="94.8464" gradientUnits="userSpaceOnUse">
<stop offset="0.010101" stop-color="#2AF6FF"/>
<stop offset="1" stop-color="#4E00D4"/>
</linearGradient>
<linearGradient id="paint9_linear_449_79" x1="401.972" y1="82.9525" x2="416.937" y2="91.1513" gradientUnits="userSpaceOnUse">
<stop offset="0.010101" stop-color="#2AF6FF"/>
<stop offset="1" stop-color="#4E00D4"/>
</linearGradient>
<linearGradient id="paint10_linear_449_79" x1="330.679" y1="60.3432" x2="388.626" y2="60.3432" gradientUnits="userSpaceOnUse">
<stop offset="0.010101" stop-color="#2AF6FF"/>
<stop offset="1" stop-color="#4E00D4"/>
</linearGradient>
<linearGradient id="paint11_linear_449_79" x1="191.692" y1="53.2875" x2="310.156" y2="101.282" gradientUnits="userSpaceOnUse">
<stop stop-color="#43E8E1"/>
<stop offset="0.0497177" stop-color="#3EC2C8"/>
<stop offset="0.1226" stop-color="#3790A8"/>
<stop offset="0.1973" stop-color="#32658C"/>
<stop offset="0.2726" stop-color="#2D4375"/>
<stop offset="0.3485" stop-color="#2A2864"/>
<stop offset="0.4253" stop-color="#271457"/>
<stop offset="0.5036" stop-color="#25094F"/>
<stop offset="0.5859" stop-color="#25054D"/>
<stop offset="1" stop-color="#7C1DC9"/>
</linearGradient>
<linearGradient id="paint12_linear_449_79" x1="254.743" y1="141.425" x2="251.843" y2="61.8926" gradientUnits="userSpaceOnUse">
<stop offset="0.010101" stop-color="#2AF6FF"/>
<stop offset="1" stop-color="#4E00D4"/>
</linearGradient>
<linearGradient id="paint13_linear_449_79" x1="257.609" y1="28.6257" x2="252.432" y2="109.87" gradientUnits="userSpaceOnUse">
<stop offset="0.010101" stop-color="#2AF6FF"/>
<stop offset="1" stop-color="#4E00D4"/>
</linearGradient>
<linearGradient id="paint14_linear_449_79" x1="253.589" y1="95.7294" x2="251.189" y2="136.769" gradientUnits="userSpaceOnUse">
<stop offset="0.010101" stop-color="#2AF6FF"/>
<stop offset="1" stop-color="#4E00D4"/>
</linearGradient>
<linearGradient id="paint15_linear_449_79" x1="588.216" y1="243.354" x2="663.4" y2="333.094" gradientUnits="userSpaceOnUse">
<stop stop-color="#43E8E1"/>
<stop offset="0.0497177" stop-color="#3EC2C8"/>
<stop offset="0.1226" stop-color="#3790A8"/>
<stop offset="0.1973" stop-color="#32658C"/>
<stop offset="0.2726" stop-color="#2D4375"/>
<stop offset="0.3485" stop-color="#2A2864"/>
<stop offset="0.4253" stop-color="#271457"/>
<stop offset="0.5036" stop-color="#25094F"/>
<stop offset="0.5859" stop-color="#25054D"/>
<stop offset="1" stop-color="#7C1DC9"/>
</linearGradient>
<linearGradient id="paint16_linear_449_79" x1="109.375" y1="229.988" x2="5.56241" y2="353.898" gradientUnits="userSpaceOnUse">
<stop stop-color="#43E8E1"/>
<stop offset="0.0497177" stop-color="#3EC2C8"/>
<stop offset="0.1226" stop-color="#3790A8"/>
<stop offset="0.1973" stop-color="#32658C"/>
<stop offset="0.2726" stop-color="#2D4375"/>
<stop offset="0.3485" stop-color="#2A2864"/>
<stop offset="0.4253" stop-color="#271457"/>
<stop offset="0.5036" stop-color="#25094F"/>
<stop offset="0.5859" stop-color="#25054D"/>
<stop offset="1" stop-color="#7C1DC9"/>
</linearGradient>
<linearGradient id="paint17_linear_449_79" x1="99.4099" y1="302.264" x2="11.7163" y2="302.264" gradientUnits="userSpaceOnUse">
<stop offset="0.010101" stop-color="#2AF6FF"/>
<stop offset="1" stop-color="#4E00D4"/>
</linearGradient>
</defs>
</svg>
