<svg width="50" height="43" viewBox="0 0 50 43" fill="none" xmlns="http://www.w3.org/2000/svg">
<path d="M43.4988 0H6.38298C2.83688 0 0 5.46032 0 12.2857V43H50V12.2857C49.8818 5.46032 47.0449 0 43.4988 0Z" fill="url(#paint0_linear_1436_23)"/>
<path d="M38.7778 16.9242C37.0097 16.9242 35.314 16.2086 34.0637 14.9348C32.8135 13.661 32.1111 11.9334 32.1111 10.132C32.1111 9.83179 31.994 9.54386 31.7857 9.33156C31.5773 9.11927 31.2947 9 31 9H25.4444C25.1498 9 24.8671 9.11927 24.6588 9.33156C24.4504 9.54386 24.3333 9.83179 24.3333 10.132V28.2444C24.3323 28.7504 24.198 29.2469 23.9446 29.6821C23.6913 30.1173 23.328 30.4753 22.8926 30.7189C22.4573 30.9625 21.9658 31.0827 21.4694 31.067C20.973 31.0513 20.4898 30.9003 20.0701 30.6297C19.6504 30.3591 19.3096 29.9788 19.0832 29.5284C18.8568 29.078 18.753 28.5741 18.7828 28.0689C18.8125 27.5638 18.9746 27.0761 19.2522 26.6565C19.5298 26.2369 19.9127 25.9008 20.3611 25.6832C20.5523 25.5937 20.7141 25.45 20.8274 25.2694C20.9407 25.0888 21.0006 24.8788 21 24.6644V18.7779C21.0028 18.6101 20.9679 18.4438 20.8981 18.2918C20.8283 18.1398 20.7254 18.006 20.5972 17.9005C20.4729 17.7962 20.3277 17.7206 20.1718 17.679C20.0159 17.6375 19.853 17.631 19.6944 17.66C17.7178 18.0207 15.8831 18.9484 14.4058 20.3343C12.9285 21.7201 11.8698 23.5065 11.3541 25.4838C10.8383 27.4611 10.8869 29.5473 11.4941 31.4975C12.1013 33.4476 13.2419 35.1809 14.782 36.4938C16.3222 37.8066 18.198 38.6447 20.1892 38.9095C22.1805 39.1743 24.2045 38.855 26.0239 37.9889C27.8432 37.1228 29.3823 35.746 30.4606 34.02C31.5388 32.2939 32.1114 30.2904 32.1111 28.2444V23.1928C34.169 24.2864 36.4568 24.8546 38.7778 24.8484C39.0725 24.8484 39.3551 24.7291 39.5635 24.5168C39.7718 24.3045 39.8889 24.0166 39.8889 23.7163V18.0562C39.8889 17.756 39.7718 17.468 39.5635 17.2557C39.3551 17.0434 39.0725 16.9242 38.7778 16.9242ZM37.6667 22.5277C35.4978 22.3316 33.4206 21.5447 31.6528 20.2495C31.4855 20.1319 31.2902 20.0626 31.0874 20.049C30.8846 20.0355 30.682 20.0781 30.5011 20.1724C30.3202 20.2668 30.1678 20.4093 30.06 20.5848C29.9522 20.7603 29.8931 20.9623 29.8889 21.1693V28.2444C29.8881 29.8008 29.4674 31.3269 28.6728 32.6562C27.8783 33.9854 26.7404 35.0665 25.3835 35.7814C24.0266 36.4963 22.503 36.8175 20.979 36.7098C19.4551 36.6022 17.9896 36.0698 16.7425 35.1709C15.4955 34.272 14.515 33.0412 13.9081 31.613C13.3012 30.1847 13.0913 28.614 13.3014 27.0724C13.5115 25.5309 14.1334 24.0778 15.0992 22.872C16.065 21.6663 17.3376 20.7541 18.7778 20.2354V24.0135C18.0594 24.5025 17.4776 25.1729 17.0892 25.9592C16.7008 26.7455 16.5191 27.621 16.5616 28.5002C16.6042 29.3794 16.8697 30.2324 17.3322 30.9759C17.7947 31.7195 18.4384 32.3282 19.2006 32.7428C19.9628 33.1574 20.8174 33.3637 21.6811 33.3416C22.5449 33.3195 23.3882 33.0698 24.129 32.6167C24.8698 32.1636 25.4827 31.5227 25.908 30.7564C26.3332 29.9902 26.5564 29.1247 26.5556 28.2444V11.2641H29.9583C30.2073 13.2583 31.0995 15.1118 32.4947 16.5333C33.89 17.9548 35.7092 18.8638 37.6667 19.1175V22.5277Z" fill="#F8F8F8"/>
<defs>
<linearGradient id="paint0_linear_1436_23" x1="24.9408" y1="-3.18517" x2="24.9411" y2="51.418" gradientUnits="userSpaceOnUse">
<stop stop-color="#FF4BCB" stop-opacity="0.57"/>
<stop offset="0.729167" stop-color="#406BA4" stop-opacity="0"/>
</linearGradient>
</defs>
</svg>
