<svg width="38" height="33" viewBox="0 0 38 33" fill="none" xmlns="http://www.w3.org/2000/svg">
<path d="M33.9676 8.57802C33.9676 8.81826 34.0842 9.05851 34.0842 9.539C34.0842 13.1427 33.2681 16.6263 31.5194 19.9897C29.7708 23.5934 27.3226 26.3562 24.175 28.5184C20.6776 30.9209 16.8305 32.002 12.284 32.002C7.97055 32.002 4.12346 30.8008 0.509521 28.5184C1.09241 28.5184 1.67531 28.6386 2.37478 28.6386C5.87214 28.6386 9.13634 27.5575 11.9342 25.2751C10.1855 25.2751 8.7866 24.7946 7.50424 23.7135C6.22187 22.6324 5.28925 21.4312 4.82293 19.8696C5.28925 19.8696 5.75556 19.9897 6.22187 19.9897C6.92135 19.9897 7.62082 19.8696 8.20371 19.7495C6.45503 19.3891 5.05609 18.4281 3.8903 16.9866C2.72451 15.5452 2.14162 13.8634 2.14162 12.0616V11.9415C3.19083 12.5421 4.35662 12.9024 5.5224 13.0226C4.4732 12.3018 3.65714 11.3408 3.07425 10.1396C2.49136 8.93838 2.14162 7.73715 2.14162 6.29568C2.14162 4.97432 2.49136 3.65297 3.19083 2.33161C5.05609 4.73408 7.38766 6.77617 10.1855 8.21765C12.9834 9.65912 15.8979 10.5 18.9289 10.6201C18.8124 10.0195 18.8124 9.41888 18.8124 8.81826C18.8124 7.37679 19.1621 6.05543 19.8616 4.8542C20.561 3.65297 21.4937 2.69198 22.6595 1.97124C23.8252 1.25051 25.1076 0.890137 26.39 0.890137C27.5558 0.890137 28.4884 1.13038 29.5376 1.61087C30.4702 2.09137 31.2863 2.69198 32.1023 3.41272C33.851 3.05235 35.4831 2.45174 36.9986 1.49075C36.4157 3.2926 35.25 4.73408 33.6179 5.81518C35.0168 5.57494 36.5323 5.21457 37.9313 4.49383C36.7655 6.05543 35.4831 7.37678 33.9676 8.57802Z" fill="white"/>
</svg>
