<svg width="32" height="33" viewBox="0 0 32 33" fill="none" xmlns="http://www.w3.org/2000/svg">
<path d="M3.88299 7.93733C2.83378 7.93733 1.90115 7.57696 1.20168 6.7361C0.502203 6.01536 0.0358887 5.05438 0.0358887 3.97327C0.0358887 2.89217 0.385625 1.93118 1.20168 1.21045C1.90115 0.489708 2.83378 0.00921631 3.88299 0.00921631C4.93219 0.00921631 5.86482 0.369585 6.5643 1.21045C7.26377 1.93118 7.73008 2.89217 7.73008 3.97327C7.73008 5.05438 7.38035 6.01536 6.5643 6.7361C5.86482 7.57696 4.93219 7.93733 3.88299 7.93733ZM7.14719 32.5625H0.618782V10.9404H7.14719V32.5625ZM31.6287 32.5625H25.1003V21.9917C25.1003 20.1899 24.9837 18.9886 24.634 18.2679C24.1677 16.9465 23.1185 16.3459 21.6029 16.3459C20.0874 16.3459 19.0382 16.9465 18.4553 18.1478C17.989 18.9886 17.7558 20.31 17.7558 21.9917V32.8028H11.2274V10.9404H17.5227V13.9435H17.6393C18.1056 12.9825 18.8051 12.1416 19.8543 11.541C21.0201 10.8203 22.3024 10.3398 23.8179 10.3398C26.849 10.3398 29.064 11.3008 30.2298 13.3429C31.1624 14.9045 31.6287 17.427 31.6287 20.7905V32.5625Z" fill="white"/>
</svg>
