<svg width="40" height="29" viewBox="0 0 40 29" fill="none" xmlns="http://www.w3.org/2000/svg">
<path d="M33.4581 28.4691H5.71235C2.56473 28.4691 0 25.8264 0 22.5831V5.88602C0 2.6427 2.56473 0 5.71235 0H33.4581C36.6057 0 39.1704 2.6427 39.1704 5.88602V22.5831C39.1704 25.8264 36.6057 28.4691 33.4581 28.4691ZM5.71235 2.6427C3.96367 2.6427 2.68131 4.08418 2.68131 5.7659V22.463C2.68131 24.2648 4.08025 25.5862 5.71235 25.5862H33.4581C35.2067 25.5862 36.4891 24.1447 36.4891 22.463V5.88602C36.4891 4.08418 35.0902 2.76283 33.4581 2.76283H5.71235V2.6427Z" fill="white"/>
<path d="M15.9711 21.3814C15.7379 21.3814 15.3882 21.2613 15.155 21.1412C14.5721 20.7808 14.2224 20.1802 14.2224 19.5796V8.16797C14.2224 7.56736 14.5721 6.96675 15.155 6.60638C15.7379 6.24602 16.4374 6.36614 16.9037 6.7265L25.1808 12.3723C25.6471 12.7326 25.9968 13.2131 25.9968 13.8137C25.9968 14.4143 25.7637 15.0149 25.1808 15.2552L16.9037 20.9009C16.554 21.2613 16.3208 21.3814 15.9711 21.3814ZM16.9037 9.96981V17.7778L22.4995 13.9338L16.9037 9.96981Z" fill="white"/>
</svg>
