<svg width="33" height="34" viewBox="0 0 33 34" fill="none" xmlns="http://www.w3.org/2000/svg">
<path d="M32.1735 17.0667C32.1735 20.1899 32.1735 22.4722 32.0569 23.9137C31.9403 25.235 31.8238 26.4363 31.474 27.5174C31.0077 28.7186 30.4248 29.7997 29.4922 30.6406C28.6761 31.4814 27.6269 32.2022 26.4611 32.6826C25.5285 33.043 24.3627 33.2833 22.9638 33.2833C21.6814 33.4034 19.4664 33.4034 16.3188 33.4034C13.1712 33.4034 11.0728 33.4034 9.67382 33.2833C8.39146 33.1631 7.22567 32.9229 6.17646 32.5625C5.01068 32.2022 3.96147 31.4814 3.14542 30.6406C2.32937 29.7997 1.6299 28.7186 1.16358 27.5174C0.813846 26.5564 0.580689 25.3552 0.580689 23.9137C0.464111 22.5923 0.464111 20.31 0.464111 17.0667C0.464111 13.9435 0.464111 11.6612 0.580689 10.2197C0.697268 8.89837 0.813846 7.69715 1.16358 6.61605C1.6299 5.41482 2.21279 4.33372 3.14542 3.49286C3.96147 2.652 5.01068 1.93127 6.17646 1.45078C7.10909 1.09041 8.27488 0.850165 9.67382 0.850165C10.9562 0.730042 13.1712 0.730042 16.3188 0.730042C19.4664 0.730042 21.5648 0.730042 22.9638 0.850165C24.2461 0.970287 25.4119 1.09041 26.4611 1.45078C27.6269 1.93127 28.6761 2.53188 29.4922 3.49286C30.3082 4.33372 31.0077 5.41482 31.474 6.61605C31.8238 7.57703 32.0569 8.89837 32.0569 10.2197C32.1735 11.6612 32.1735 13.9435 32.1735 17.0667ZM29.3756 22.7125C29.3756 21.6314 29.4922 20.1899 29.4922 18.1478V15.8655C29.4922 13.8234 29.4922 12.3819 29.3756 11.4209C29.259 9.61911 29.1424 8.29776 28.7927 7.4569C28.2098 5.89531 27.1606 4.93433 25.7617 4.33372C25.0622 4.09347 23.7798 3.85323 21.9146 3.73311C20.8654 3.73311 19.4664 3.61298 17.4846 3.61298H15.2696C13.4043 3.61298 11.8888 3.61298 10.8396 3.73311C9.09093 3.85323 7.80856 3.97335 6.99251 4.33372C5.59357 4.93433 4.54436 6.01543 3.96147 7.4569C3.72831 8.17764 3.49515 9.49899 3.37858 11.4209C3.37858 12.5021 3.262 13.9435 3.262 15.8655V18.2679C3.262 20.1899 3.262 21.7515 3.37858 22.8326C3.49515 24.6344 3.61173 25.9558 3.96147 26.7966C4.54436 28.3582 5.59357 29.3192 6.99251 29.9198C7.80856 30.1601 9.09093 30.4003 10.8396 30.5204C11.8888 30.5204 13.2878 30.6406 15.2696 30.6406H17.6012C19.583 30.6406 20.9819 30.6406 22.0312 30.5204C23.7798 30.4003 25.0622 30.2802 25.8782 29.9198C27.2772 29.3192 28.3264 28.2381 28.9093 26.7966C29.0259 25.8357 29.259 24.5143 29.3756 22.7125ZM20.5156 9.85936C21.798 10.5801 22.7306 11.6612 23.4301 12.8624C24.1296 14.1838 24.4793 15.5051 24.4793 17.0667C24.4793 18.6283 24.1296 19.9497 23.4301 21.271C22.7306 22.5923 21.6814 23.5533 20.5156 24.2741C19.2333 24.9948 17.9509 25.4753 16.4354 25.4753C15.0364 25.4753 13.6375 25.1149 12.3551 24.3942C11.0728 23.6734 10.1401 22.5923 9.44066 21.3911C8.74119 19.9497 8.27488 18.5082 8.27488 17.0667C8.27488 15.6252 8.62461 14.1838 9.32408 12.8624C10.0236 11.5411 11.0728 10.5801 12.2385 9.85936C13.5209 9.13862 14.8033 8.77825 16.3188 8.77825C17.9509 8.65813 19.2333 9.13862 20.5156 9.85936ZM20.1659 20.9106C21.2151 19.8295 21.6814 18.5082 21.6814 17.0667C21.6814 15.6252 21.2151 14.3039 20.1659 13.2228C19.1167 12.1417 17.8343 11.6612 16.4354 11.6612C15.0364 11.6612 13.7541 12.1417 12.7049 13.2228C11.6557 14.3039 11.1893 15.6252 11.1893 17.0667C11.1893 18.6283 11.6557 19.8295 12.7049 20.9106C13.7541 21.9917 15.0364 22.4722 16.4354 22.4722C17.9509 22.4722 19.1167 21.9917 20.1659 20.9106ZM26.228 6.97642C25.8782 6.61605 25.4119 6.3758 24.9456 6.3758C24.4793 6.3758 24.013 6.61605 23.6633 6.97642C23.3135 7.33678 23.0804 7.81727 23.0804 8.29776C23.0804 8.77825 23.3135 9.25874 23.6633 9.61911C24.013 9.97948 24.4793 10.2197 24.9456 10.2197C25.4119 10.2197 25.8782 9.97948 26.228 9.61911C26.5777 9.25874 26.8109 8.77825 26.8109 8.29776C26.8109 7.81727 26.5777 7.33678 26.228 6.97642Z" fill="white"/>
</svg>
