<svg width="34" height="29" viewBox="0 0 34 29" fill="none" xmlns="http://www.w3.org/2000/svg">
<path d="M33.4193 2.77316L28.5229 26.6775C28.2898 27.5184 28.0566 28.119 27.5903 28.2391C27.124 28.4793 26.5411 28.3592 25.8416 27.9988L18.3806 22.3531L14.7667 25.9568C14.5335 26.197 14.3003 26.4372 14.1838 26.4372C13.9506 26.5574 13.6009 26.6775 13.2511 26.6775L13.834 18.7494L27.7069 5.77622C27.9401 5.6561 27.9401 5.53598 27.9401 5.41585C27.8235 5.29573 27.7069 5.29573 27.4737 5.29573C27.2406 5.29573 27.0074 5.41585 26.7743 5.53598L9.52062 16.7073L2.05959 14.3049C1.24353 14.0647 0.893799 13.7043 0.893799 13.2238C0.893799 12.7433 1.47669 12.2628 2.40932 11.9025L31.3208 0.370717C32.0203 0.130472 32.6032 0.250595 33.0695 0.610962C33.5358 1.09145 33.6524 1.81218 33.4193 2.77316Z" fill="white"/>
</svg>
