<svg width="46" height="42" viewBox="0 0 46 42" fill="none" xmlns="http://www.w3.org/2000/svg">
<path d="M33.6489 41.4336H11.5781C5.24634 41.4336 0 36.6273 0 30.8266V10.607C0 4.8063 5.24634 0 11.5781 0H33.5585C39.9807 0 45.2271 4.8063 45.2271 10.607V30.7437C45.2271 36.6273 39.9807 41.4336 33.6489 41.4336Z" fill="url(#paint0_linear_449_51)"/>
<path d="M36.9053 3.23193H8.50269C5.78906 3.23193 3.61816 5.22065 3.61816 7.70654V18.8931H41.8802V7.70654C41.7898 5.22065 39.6189 3.23193 36.9053 3.23193Z" fill="url(#paint1_linear_449_51)"/>
<path d="M35.1866 12.7612L31.3876 29.252C31.2067 29.8321 31.0258 30.2464 30.6639 30.3293C30.3021 30.495 29.8499 30.4122 29.3071 30.1636L23.5181 26.2687L20.714 28.7548C20.5331 28.9205 20.3522 29.0863 20.2617 29.0863C20.0808 29.1691 19.8094 29.252 19.5381 29.252L19.9904 23.7827L30.7544 14.8329C30.9353 14.75 30.9353 14.6672 30.9353 14.5843C30.8448 14.5014 30.7544 14.5014 30.5735 14.5014C30.3926 14.5014 30.2117 14.5843 30.0308 14.6672L16.6436 22.3739L10.8545 20.7166C10.2213 20.5508 9.94995 20.3022 9.94995 19.9707C9.94995 19.6393 10.4022 19.3078 11.1259 19.0592L33.5585 11.1038C34.1012 10.9381 34.5535 11.0209 34.9153 11.2695C35.2771 11.601 35.3676 12.0982 35.1866 12.7612Z" fill="white"/>
<defs>
<linearGradient id="paint0_linear_449_51" x1="22.6135" y1="0.124798" x2="22.6135" y2="53.6557" gradientUnits="userSpaceOnUse">
<stop stop-color="#03AEA1"/>
<stop offset="1" stop-color="#563181"/>
</linearGradient>
<linearGradient id="paint1_linear_449_51" x1="22.7039" y1="2.07185" x2="22.7039" y2="21.959" gradientUnits="userSpaceOnUse">
<stop offset="0.145833" stop-color="#FF00B5" stop-opacity="0.43"/>
<stop offset="0.729167" stop-color="#406BA4" stop-opacity="0"/>
</linearGradient>
</defs>
</svg>
