<svg width="46" height="42" viewBox="0 0 46 42" fill="none" xmlns="http://www.w3.org/2000/svg">
<path d="M33.9216 41.4336H11.8508C5.51904 41.4336 0.272705 36.6273 0.272705 30.8266V10.607C0.272705 4.8063 5.51904 0 11.8508 0H33.8312C40.2534 0 45.4998 4.8063 45.4998 10.607V30.7437C45.4998 36.6273 40.2534 41.4336 33.9216 41.4336Z" fill="url(#paint0_linear_449_55)"/>
<path d="M37.178 3.23193H8.77539C6.06177 3.23193 3.89087 5.22065 3.89087 7.70654V18.8931H42.153V7.70654C42.0625 5.22065 39.8916 3.23193 37.178 3.23193Z" fill="url(#paint1_linear_449_55)"/>
<path d="M34.3739 16.0759C34.3739 16.2416 34.4644 16.4074 34.4644 16.7388C34.4644 19.2248 33.8312 21.628 32.4744 23.9482C31.1176 26.4342 29.218 28.3401 26.7758 29.8317C24.0621 31.4891 21.0771 32.2349 17.5494 32.2349C14.2026 32.2349 11.2177 31.4062 8.41357 29.8317C8.86584 29.8317 9.31812 29.9146 9.86084 29.9146C12.5745 29.9146 15.1072 29.1688 17.2781 27.5943C15.9213 27.5943 14.8358 27.2629 13.8408 26.5171C12.8458 25.7713 12.1222 24.9426 11.7604 23.8654C12.1222 23.8654 12.484 23.9482 12.8458 23.9482C13.3885 23.9482 13.9313 23.8654 14.3835 23.7825C13.0267 23.5339 11.9413 22.871 11.0367 21.8766C10.1322 20.8822 9.67993 19.722 9.67993 18.479V18.3962C10.494 18.8105 11.3986 19.0591 12.3031 19.142C11.489 18.6448 10.8558 17.9818 10.4036 17.1532C9.95129 16.3245 9.67993 15.4958 9.67993 14.5014C9.67993 13.5899 9.95129 12.6784 10.494 11.7669C11.9413 13.4242 13.7504 14.8329 15.9213 15.8273C18.0922 16.8217 20.3535 17.4018 22.7053 17.4846C22.6149 17.0703 22.6149 16.656 22.6149 16.2416C22.6149 15.2472 22.8862 14.3357 23.429 13.5071C23.9717 12.6784 24.6953 12.0155 25.5999 11.5183C26.5044 11.0211 27.4994 10.7725 28.4944 10.7725C29.3989 10.7725 30.1226 10.9382 30.9366 11.2697C31.6603 11.6011 32.2935 12.0155 32.9266 12.5127C34.2834 12.2641 35.5498 11.8497 36.7257 11.1868C36.2734 12.4298 35.3689 13.4242 34.1025 14.17C35.188 14.0043 36.3639 13.7557 37.4493 13.2585C36.5448 14.3357 35.5498 15.2472 34.3739 16.0759Z" fill="white"/>
<defs>
<linearGradient id="paint0_linear_449_55" x1="22.8862" y1="0.124798" x2="22.8862" y2="53.6557" gradientUnits="userSpaceOnUse">
<stop stop-color="#03AEA1"/>
<stop offset="1" stop-color="#563181"/>
</linearGradient>
<linearGradient id="paint1_linear_449_55" x1="22.9766" y1="2.07185" x2="22.9767" y2="21.959" gradientUnits="userSpaceOnUse">
<stop stop-color="#FF4BCB" stop-opacity="0.57"/>
<stop offset="0.729167" stop-color="#406BA4" stop-opacity="0"/>
</linearGradient>
</defs>
</svg>
