<svg width="46" height="42" viewBox="0 0 46 42" fill="none" xmlns="http://www.w3.org/2000/svg">
<path d="M33.834 41.9189H11.7632C5.4314 41.9189 0.185059 37.1128 0.185059 31.3122V11.0931C0.185059 5.29251 5.4314 0.486328 11.7632 0.486328H33.7435C40.1658 0.486328 45.4121 5.29251 45.4121 11.0931V31.2293C45.4121 37.1128 40.1658 41.9189 33.834 41.9189Z" fill="url(#paint0_linear_449_39)"/>
<path d="M37.0903 3.71875H8.68774C5.97412 3.71875 3.80322 5.70747 3.80322 8.19336V19.3799H42.0653V8.19336C41.9749 5.70747 39.804 3.71875 37.0903 3.71875Z" fill="url(#paint1_linear_449_39)"/>
<path d="M33.3817 31.0645H11.8536C9.41138 31.0645 7.42139 29.2414 7.42139 27.004V15.4857C7.42139 13.2483 9.41138 11.4253 11.8536 11.4253H33.3817C35.824 11.4253 37.814 13.2483 37.814 15.4857V27.004C37.814 29.2414 35.824 31.0645 33.3817 31.0645ZM11.8536 13.2483C10.4968 13.2483 9.50183 14.2427 9.50183 15.4028V26.9212C9.50183 28.1642 10.5873 29.0757 11.8536 29.0757H33.3817C34.7385 29.0757 35.7335 28.0813 35.7335 26.9212V15.4857C35.7335 14.2427 34.6481 13.3312 33.3817 13.3312H11.8536V13.2483Z" fill="white"/>
<path d="M19.8134 26.1753C19.6324 26.1753 19.3611 26.0924 19.1802 26.0096C18.7279 25.761 18.4565 25.3466 18.4565 24.9323V17.0599C18.4565 16.6456 18.7279 16.2312 19.1802 15.9826C19.6324 15.734 20.1752 15.8169 20.537 16.0655L26.9592 19.9603C27.321 20.2089 27.5924 20.5403 27.5924 20.9547C27.5924 21.369 27.4115 21.7833 26.9592 21.9491L20.537 25.8438C20.2656 26.0924 20.0847 26.1753 19.8134 26.1753ZM20.537 18.3029V23.6893L24.8788 21.0375L20.537 18.3029Z" fill="white"/>
<defs>
<linearGradient id="paint0_linear_449_39" x1="22.7986" y1="0.611123" x2="22.7986" y2="54.1407" gradientUnits="userSpaceOnUse">
<stop stop-color="#03AEA1"/>
<stop offset="1" stop-color="#563181"/>
</linearGradient>
<linearGradient id="paint1_linear_449_39" x1="22.8889" y1="2.55867" x2="22.889" y2="22.4458" gradientUnits="userSpaceOnUse">
<stop stop-color="#FF4BCB" stop-opacity="0.57"/>
<stop offset="0.729167" stop-color="#406BA4" stop-opacity="0"/>
</linearGradient>
</defs>
</svg>
